PathFileType	4	(X/Y/Z)	/Users/niels/Desktop/University/Third Semester/Perception and Action/Exam/Gymnastics Motion Tracking/Code for Gym Tracking/Analyzed Data/Webcam_Backflip/id6_5_pure_Sports2D/id6_5_pure_Sports2D_px_person00.trc
DataRate	CameraRate	NumFrames	NumMarkers	Units	OrigDataRate	OrigDataStartFrame	OrigNumFrames
29.81132075471698	29.81132075471698	10	22	m	29.81132075471698	119	159
Frame#	Time	Hip			RHip			RKnee			RAnkle			RBigToe			RSmallToe			RHeel			LHip			LKnee			LAnkle			LBigToe			LSmallToe			LHeel			Neck			Head			Nose			RShoulder			RElbow			RWrist			LShoulder			LElbow			LWrist		
		X1	Y1	Z1	X2	Y2	Z2	X3	Y3	Z3	X4	Y4	Z4	X5	Y5	Z5	X6	Y6	Z6	X7	Y7	Z7	X8	Y8	Z8	X9	Y9	Z9	X10	Y10	Z10	X11	Y11	Z11	X12	Y12	Z12	X13	Y13	Z13	X14	Y14	Z14	X15	Y15	Z15	X16	Y16	Z16	X17	Y17	Z17	X18	Y18	Z18	X19	Y19	Z19	X20	Y20	Z20	X21	Y21	Z21	X22	Y22	Z22
119	3.991772151898734	1.032502247821646	-0.4788837166653915	0.0	1.0217149477495544	-0.478565494444968	0.0	1.0414069674875792	-0.5791434846943728	0.0	1.0327644490110663	-0.6788594712826719	0.0	1.0555418014856421	-0.7239752997712945	0.0	1.043819523222476	-0.7241082464455223	0.0	1.0246809897956541	-0.6940806976733033	0.0	1.044186511841187	-0.47857417236041544	0.0	1.0465612059963834	-0.5789066741795901	0.0	1.0336006305861252	-0.676716701044856	0.0	1.0567356144896696	-0.7148539737387333	0.0	1.0554642814675859	-0.7127419570973269	0.0	1.022434616706755	-0.6924894119150489	0.0	1.0488356009366704	-0.33874000486947714	0.0	1.0707298167745478	-0.2681783915954136	0.0	1.0748704163852791	-0.30640299185624364	0.0	1.0281382415164888	-0.3513453346106546	0.0	0.998211821063136	-0.41165194238943875	0.0	1.023882575899044	-0.46765279931282017	0.0	1.0609199374239369	-0.3578379145266583	0.0	1.0573719873321417	-0.4180021324855726	0.0	1.0879047223670983	-0.4700066555933277	0.0
120	4.025316455696203	1.030003501523977	-0.47386602957408536	0.0	1.018848073030198	-0.472839386166059	0.0	1.0389810378904063	-0.5737030951478612	0.0	1.0311770396064102	-0.6738973179560053	0.0	1.0530846791170447	-0.7202570259702082	0.0	1.0413025996578262	-0.7202639720387349	0.0	1.0231075131257836	-0.6888686099547154	0.0	1.0426881026714332	-0.47354889562537245	0.0	1.0452272434801786	-0.5740570081641528	0.0	1.0326993515917773	-0.6721475964813222	0.0	1.0533651520259806	-0.7109433415609772	0.0	1.0528142948643116	-0.7091438472498174	0.0	1.0221690833093229	-0.6871587365015803	0.0	1.0479164315824387	-0.3329655194033386	0.0	1.0688942136102004	-0.26274076218888814	0.0	1.0734197452577512	-0.3013813643193286	0.0	1.0263052917371447	-0.34522172363829096	0.0	0.9966033938485787	-0.4058335240172003	0.0	1.0259611776745232	-0.4593193925165829	0.0	1.0603848398625169	-0.3528238698553628	0.0	1.0591826658997285	-0.41297908705304925	0.0	1.094466648178713	-0.4627738188412143	0.0
121	4.058860759493671	1.027832909580891	-0.4727215695433541	0.0	1.0164412636546718	-0.471143184944779	0.0	1.0364920745000183	-0.5721409515814886	0.0	1.0293917332498173	-0.6730107313818517	0.0	1.0509042603011456	-0.7201778540565075	0.0	1.0389667245323868	-0.7201046934998889	0.0	1.0212347168431777	-0.6880198974507966	0.0	1.0411667408289507	-0.4723625843998202	0.0	1.0437855106151308	-0.5730319807483418	0.0	1.031845280544104	-0.6716873971936906	0.0	1.0503719935022915	-0.7113288726948837	0.0	1.0507519070867986	-0.7096011436319205	0.0	1.0218675432467963	-0.6861101468549926	0.0	1.046856657541411	-0.331037140336171	0.0	1.0667801926135476	-0.2609635591347539	0.0	1.0713790644835857	-0.3002432885562172	0.0	1.0246366567621585	-0.3430542656470578	0.0	0.995550712421805	-0.4043490390659246	0.0	1.027429134648582	-0.45574842081192896	0.0	1.0595647443089165	-0.3514049043815144	0.0	1.0606521087314447	-0.41163758222607566	0.0	1.1000052307643982	-0.45927579599112844	0.0
122	4.092405063291139	1.0259796402569985	-0.47552179057106236	0.0	1.014511455152542	-0.47358235401306026	0.0	1.034069760111855	-0.5745971374476142	0.0	1.0274092817353297	-0.6762406474497721	0.0	1.0488447536036836	-0.723871959755782	0.0	1.0366517275767542	-0.7237339027752772	0.0	1.019057329966596	-0.6915339169315304	0.0	1.039627666894701	-0.47505555256262144	0.0	1.0421294648229278	-0.5758802024535509	0.0	1.03085605492526	-0.6752984118621639	0.0	1.0477736544609948	-0.7158821273850093	0.0	1.0491423607667933	-0.7140409290131193	0.0	1.0213246384806682	-0.6894357806713244	0.0	1.045535503445488	-0.3330351187853883	0.0	1.0644763725285902	-0.26276453598790356	0.0	1.0688663878385785	-0.3030076529183035	0.0	1.022959206810983	-0.3449357286761557	0.0	0.9947705114118705	-0.40719289790671487	0.0	1.0282391298317988	-0.4571060197994259	0.0	1.0585891187433014	-0.35356136948572536	0.0	1.0618358696656025	-0.4139251296640891	0.0	1.1044393572289484	-0.4596506268493283	0.0
123	4.125949367088608	1.0243810995327254	-0.4823107321337549	0.0	1.0129912969469186	-0.48021375975057146	0.0	1.0317984390128951	-0.5811581118538646	0.0	1.0251315775922007	-0.6835905241174853	0.0	1.0465690204036935	-0.7312576805249255	0.0	1.0340196503377084	-0.731050815178048	0.0	1.01653971488472	-0.6993461396977877	0.0	1.0380787933469768	-0.4816764663503825	0.0	1.0402260242962331	-0.5826354907546427	0.0	1.0294289726051595	-0.6828773627844168	0.0	1.0453426108523414	-0.7241407497296638	0.0	1.047584641523431	-0.7220946764517804	0.0	1.020206019554982	-0.697067473601051	0.0	1.0438834742424186	-0.3389923702559688	0.0	1.0619420877794652	-0.2681067520889532	0.0	1.0660306269855195	-0.30961264272824285	0.0	1.0210926790936232	-0.3510077541828174	0.0	0.9939596539916478	-0.41432568899667893	0.0	1.0283348285429796	-0.46346194342549357	0.0	1.0575316609041605	-0.3593876358781563	0.0	1.0626715598606657	-0.4198775378391808	0.0	1.1076671333381545	-0.46410814318902516	0.0
124	4.159493670886076	1.0229867888233932	-0.49301443225992836	0.0	1.0117827890836764	-0.4909660014620622	0.0	1.029674768427357	-0.5917261474468433	0.0	1.0223194884608395	-0.6949212945924639	0.0	1.043716186643715	-0.7419746668527211	0.0	1.0307158817242736	-0.7417006523254642	0.0	1.0134959746295853	-0.7112227415594243	0.0	1.0365590189415193	-0.4921761653458677	0.0	1.0381701352256048	-0.593189019251798	0.0	1.027276296745133	-0.694175078609456	0.0	1.042816295995759	-0.7354212622931241	0.0	1.0456953313660493	-0.7331545623069287	0.0	1.0182172810564756	-0.7086871733927934	0.0	1.0419162600633476	-0.34884567122246884	0.0	1.0591433442152702	-0.2770415754729592	0.0	1.0629937824919564	-0.3199358244220023	0.0	1.0189576515312566	-0.3613313123534109	0.0	0.9928852547777377	-0.4256013893682776	0.0	1.0276103318944974	-0.4747389798240952	0.0	1.056379326154484	-0.36899064452605973	0.0	1.062963347441783	-0.4295424488040479	0.0	1.1095585972421256	-0.4728095817157302	0.0
125	4.193037974683544	1.021789827099649	-0.5073792104520787	0.0	1.010809524906741	-0.5055544306190515	0.0	1.0276564532972752	-0.606010974698591	0.0	1.018711727892703	-0.7098365363670859	0.0	1.0400703496870558	-0.7553959453667509	0.0	1.0265469154196853	-0.7550816678227913	0.0	1.0096270871367607	-0.7266433793348669	0.0	1.03515701353974	-0.5063230048701326	0.0	1.0361788801156753	-0.6072646650021398	0.0	1.024281980529005	-0.7087506977174632	0.0	1.0401510134095846	-0.7489529804648686	0.0	1.0433357238323053	-0.746452929895356	0.0	1.0152871010365436	-0.7236819420982012	0.0	1.0397588148813843	-0.3623957501250875	0.0	1.0561927768576713	-0.2896976279423814	0.0	1.059848009742694	-0.33383682993408964	0.0	1.0166232634683465	-0.3757355020557062	0.0	0.9914513607892859	-0.4407148458047446	0.0	1.0259310533931938	-0.4906392346217374	0.0	1.055057366869822	-0.3823307064883696	0.0	1.0624897186649462	-0.4428868707590917	0.0	1.1099976093495973	-0.48577572741203007	0.0
126	4.226582278481012	1.0208008909730546	-0.5248925409127737	0.0	1.0100004239112441	-0.5233969104205172	0.0	1.0257493029626288	-0.6235330496370123	0.0	1.0142379017421372	-0.727598081150449	0.0	1.0356201661202158	-0.7706917067405133	0.0	1.0215545398407062	-0.770368508868921	0.0	1.004797913823493	-0.744726970537777	0.0	1.0339783332237822	-0.5236248052422708	0.0	1.0344910616206804	-0.6244231533663891	0.0	1.0205504902162383	-0.7259303592312176	0.0	1.0375086620431584	-0.7639731998318208	0.0	1.0405772835693865	-0.7611804582817725	0.0	1.0115521453806473	-0.7411404155346418	0.0	1.037603162304237	-0.3792476210118253	0.0	1.0533164339628343	-0.30609064775709816	0.0	1.056682509510043	-0.35105073931061187	0.0	1.0142391613045911	-0.39371930166827146	0.0	0.9897159168792736	-0.45916230161995863	0.0	1.0232163869480115	-0.5105899867174397	0.0	1.0535073596307958	-0.39910307012087287	0.0	1.061154211291682	-0.45966625844785536	0.0	1.1089112524621316	-0.5027755918237639	0.0
127	4.260126582278481	1.020000458314687	-0.5446972718291629	0.0	1.0092658522501217	-0.5435626866053338	0.0	1.0240677048187843	-0.6435073170071784	0.0	1.0091559855671846	-0.7471424588967706	0.0	1.0305344132221161	-0.7869241281825087	0.0	1.0159870811412874	-0.7865803837510185	0.0	0.9992828318180715	-0.7642452044519227	0.0	1.033067513408806	-0.5432307791148019	0.0	1.033263729078187	-0.643961996383541	0.0	1.0163506373777438	-0.7447785314528017	0.0	1.035026314804708	-0.779767418405841	0.0	1.0375239150148263	-0.776590158006694	0.0	1.0072420937754618	-0.7599124251536813	0.0	1.0355868797035526	-0.3987279395389346	0.0	1.0507089545346004	-0.3258216277689339	0.0	1.0536168052916395	-0.3709653705826137	0.0	1.0119124850113548	-0.4144195435962563	0.0	0.9878655102322189	-0.4801793946098969	0.0	1.0195009274604492	-0.5337017718510567	0.0	1.0517484011792746	-0.4186560322607655	0.0	1.0590628857182773	-0.4793002062719019	0.0	1.1062734694829537	-0.5232407813337014	0.0
128	4.293670886075949	1.0193368171586314	-0.5655584649838684	0.0	1.008531384289709	-0.5647727701255562	0.0	1.0228282719871649	-0.6647264425566959	0.0	1.0039543020431778	-0.7671636497619452	0.0	1.0251587293275208	-0.8030769299938932	0.0	1.0102509974467837	-0.8026493436817423	0.0	0.9936571940944696	-0.783726892525984	0.0	1.0323695488002333	-0.5638869891540715	0.0	1.0325469963143807	-0.6647888216440635	0.0	1.0120113706830247	-0.7641242224258282	0.0	1.0326923424207461	-0.7956195026356545	0.0	1.0342419920758081	-0.7919719490338392	0.0	1.0026232608349461	-0.7787046787893406	0.0	1.0337324756099597	-0.4198151262644818	0.0	1.0484293131397442	-0.34789527278288024	0.0	1.0508000562104112	-0.3924796159109699	0.0	1.0096339085353336	-0.4366236256595856	0.0	0.9861467457644438	-0.502657540158885	0.0	1.0149168825064843	-0.5586878552831197	0.0	1.0498853701413553	-0.4399280892019215	0.0	1.056512660180821	-0.5008182098381853	0.0	1.1020930377443268	-0.546254046534914	0.0
